<svg xmlns="http://www.w3.org/2000/svg" width="80.562" height="18.364" viewBox="0 0 80.562 18.364"><g transform="translate(0.001 0.004)"><g transform="translate(0.6 0.596)"><g transform="translate(47.355 2.086)"><path d="M84.238,23.579a1.246,1.246,0,1,1,1.246,1.246A1.234,1.234,0,0,1,84.238,23.579Z" transform="translate(-84.235 -12.079)" fill="#0081a9"/><path d="M103.559,13.906c-.243.221-.521.453-.832.691a8.266,8.266,0,0,1-1,.657,6.466,6.466,0,0,1-1.132.493,3.794,3.794,0,0,1-1.195.193,1.829,1.829,0,0,1-.957-.232,1.7,1.7,0,0,1-.657-.713,3.884,3.884,0,0,1-.374-1.206,10.758,10.758,0,0,1-.119-1.7c-.125.193-.26.4-.408.6a6.168,6.168,0,0,1-.442.566c-.147.159-.289.357-.425.515s-.249.283-.345.379A11.545,11.545,0,0,1,93.639,15.8a3.431,3.431,0,0,1-1.784.566,1.229,1.229,0,0,1-.476-.091,1.2,1.2,0,0,1-.351-.238.974.974,0,0,1-.215-.328.9.9,0,0,1-.074-.357,4.366,4.366,0,0,1,.193-1.268,8.363,8.363,0,0,1,.521-1.251,12.459,12.459,0,0,1,.674-1.206,12.63,12.63,0,0,1,.747-1.036,9.594,9.594,0,0,1,.691-.81,6.438,6.438,0,0,1,.719-.7,3.233,3.233,0,0,1,.674-.436,1.251,1.251,0,0,1,.566-.159.764.764,0,0,1,.294.062,2.428,2.428,0,0,1,.328.147c.1.062.2.119.283.181a1.331,1.331,0,0,1,.181.136c.062.068.13.153.2.243a.447.447,0,0,1,.108.289,1.275,1.275,0,0,1-.04.238.425.425,0,0,1-.142.226l-.068.079a.526.526,0,0,1-.079.079.509.509,0,0,1-.136.062.719.719,0,0,1-.221.028.368.368,0,0,1-.238-.091,1.013,1.013,0,0,1-.176-.2,1.444,1.444,0,0,1-.136-.232.668.668,0,0,0-.113-.17,1.042,1.042,0,0,0-.566.2,3.5,3.5,0,0,0-.606.521,6.539,6.539,0,0,0-.623.742c-.2.277-.385.566-.566.872s-.351.606-.5.906-.289.566-.4.821-.2.47-.26.651a1.461,1.461,0,0,0-.1.374.5.5,0,0,0,.527.5,1.342,1.342,0,0,0,.487-.1,4.53,4.53,0,0,0,.527-.26,5.137,5.137,0,0,0,.5-.328c.153-.113.289-.215.4-.306.255-.215.521-.464.815-.742a8.987,8.987,0,0,0,.832-.895,7.643,7.643,0,0,0,.719-.968,4.269,4.269,0,0,0,.476-.991c.062-.2.119-.442.176-.713s.1-.566.153-.878.091-.634.13-.968.074-.668.108-.985.057-.64.079-.94.045-.566.068-.815q.04-.985.917-.985a.34.34,0,0,1,.306.232,1.6,1.6,0,0,1,.108.645,1.6,1.6,0,0,1-.04.345c-.04.187-.062.43-.108.719s-.1.606-.159.963-.113.725-.17,1.1l-.17,1.132c-.057.379-.108.725-.153,1.042s-.085.6-.108.844a4.784,4.784,0,0,0-.04.521v.521a6.191,6.191,0,0,0,.034.634,5.166,5.166,0,0,0,.119.645,1.88,1.88,0,0,0,.238.566,1.3,1.3,0,0,0,.391.413,1.132,1.132,0,0,0,.6.159,3.511,3.511,0,0,0,.872-.113,4.927,4.927,0,0,0,.889-.34,7.225,7.225,0,0,0,.923-.51c.311-.2.645-.425.991-.674l.045-.045a.379.379,0,0,1,.085-.079l.085-.079a.119.119,0,0,1,.045-.034c.034,0,.068.04.1.113a.872.872,0,0,1,.045.294,1.132,1.132,0,0,1-.045.3.685.685,0,0,1-.193.306Z" transform="translate(-87.057 -4.28)" fill="#0081a9"/><path d="M121.726,13.905a1,1,0,0,1-.17.413,12.826,12.826,0,0,1-.77,1.07,13.421,13.421,0,0,1-1.025,1.132c-.374.368-.77.753-1.189,1.132a11.189,11.189,0,0,1-1.28.94,7.848,7.848,0,0,1-1.285.645,3.244,3.244,0,0,1-1.212.249h-.051a2.463,2.463,0,0,1-1.982-.759,3.1,3.1,0,0,1-.657-2.106,8.193,8.193,0,0,1,.085-1.132,6.67,6.67,0,0,1,.294-1.229,6.49,6.49,0,0,1,.566-1.246,6.229,6.229,0,0,1,.934-1.206,3.363,3.363,0,0,1,.889-.668,2.061,2.061,0,0,1,.889-.232.527.527,0,0,1,.164.034,1.008,1.008,0,0,1,.2.079,1.065,1.065,0,0,1,.368.283,2.158,2.158,0,0,1,.317.532,1.625,1.625,0,0,1,.1.6,2.464,2.464,0,0,1-.125.815,2.831,2.831,0,0,1-.357.713,4.79,4.79,0,0,1-.566.7c-.226.238-.487.487-.781.764l-.345.306-.436.357-.481.391-.487.391a1.335,1.335,0,0,0,1.54,1.387,4.133,4.133,0,0,0,1.75-.43,5.561,5.561,0,0,0,.855-.5c.26-.187.521-.379.77-.566.125-.1.26-.215.413-.351l.459-.425.47-.447.447-.43.283-.277.323-.317.419-.419a1.133,1.133,0,0,1,.566-.334C121.7,13.758,121.726,13.792,121.726,13.905Zm-5.962-1.132a.651.651,0,0,0-.125-.4.351.351,0,0,0-.3-.176A.747.747,0,0,0,115,12.3a1.631,1.631,0,0,0-.442.385,5.509,5.509,0,0,0-.821,1.353,7.485,7.485,0,0,0-.464,1.8c.328-.26.6-.5.827-.7s.425-.4.606-.566a3.681,3.681,0,0,0,.368-.391,5.026,5.026,0,0,0,.334-.442,2.566,2.566,0,0,0,.243-.481,1.382,1.382,0,0,0,.108-.515Z" transform="translate(-96.322 -7.156)" fill="#0081a9"/><path d="M135.5,15.182a.442.442,0,0,1-.085.289.9.9,0,0,1-.226.176l-.294.153a.945.945,0,0,0-.289.21c-.153.153-.3.311-.447.481s-.3.334-.442.51-.289.345-.425.515l-.391.5c-.362.487-.713,1.025-1.064,1.6s-.668,1.132-.963,1.7a2.985,2.985,0,0,1-.311.487,3.59,3.59,0,0,1-.345.362,1.744,1.744,0,0,1-.306.226.487.487,0,0,1-.209.079q-.323,0-.662-.459v-.164a1.181,1.181,0,0,0,0-.136,2.339,2.339,0,0,0-.062-.566,4.234,4.234,0,0,0-.176-.612c-.079-.221-.176-.453-.289-.7s-.238-.527-.385-.832a9.1,9.1,0,0,1-.379-.889q-.159-.442-.272-.849a7.806,7.806,0,0,1-.164-.764,4.758,4.758,0,0,1-.051-.657,1.818,1.818,0,0,1,.057-.442,1.75,1.75,0,0,1,.17-.425.94.94,0,0,1,.272-.323.617.617,0,0,1,.385-.125.691.691,0,0,1,.464.125.634.634,0,0,1,.136.464,1.187,1.187,0,0,1,0,.232,1.158,1.158,0,0,1-.062.26c-.023.091-.04.164-.057.249a1.235,1.235,0,0,0-.028.238,3.454,3.454,0,0,0,.091.747,7.484,7.484,0,0,0,.226.781c.091.26.187.521.3.781s.215.515.323.764.243.566.328.793.136.351.153.385a3.034,3.034,0,0,0,.419-.447c.159-.2.323-.436.5-.7s.357-.532.566-.821.351-.566.527-.844l.2-.328.294-.47.328-.532.34-.527.3-.453c.1-.142.17-.243.226-.317a1.489,1.489,0,0,1,.5-.419,1.467,1.467,0,0,1,.634-.147.476.476,0,0,1,.277.085.7.7,0,0,1,.209.2.935.935,0,0,1,.13.26A.714.714,0,0,1,135.5,15.182Z" transform="translate(-102.898 -8.648)" fill="#0081a9"/></g><path d="M15.214,14.267a.9.9,0,0,1-.538.181,1.835,1.835,0,0,1-.4-.034.283.283,0,0,1-.209-.176,7.593,7.593,0,0,1-.442-1.869c-.164-1.031-.328-2.22-.481-3.561q-.5-6.132-.776-6.285c-.153.334-.391.968-.708,1.9s-.7,2.14-1.132,3.635A29.977,29.977,0,0,1,9.507,11.4a2.831,2.831,0,0,1-.628,1.132,2.2,2.2,0,0,1-.413.283.861.861,0,0,1-.408.136.493.493,0,0,1-.272-.051.849.849,0,0,1-.147-.323c-.057-.21-.187-.866-.4-1.959S6.874,8.531,6.76,7.648L6.636,6.77A28.2,28.2,0,0,0,6.155,3.73,3.59,3.59,0,0,0,5.4,5.315Q5.039,6.527,4.58,8.752q-.442,1.755-1.07,5.662a.566.566,0,0,1-.311.419,1.025,1.025,0,0,1-.527.187q-.328,0-.374-.645c0-.436-.108-1.37-.283-2.831s-.334-2.7-.47-3.794a36.7,36.7,0,0,0-.8-4.281A7.163,7.163,0,0,1,.6,2.756.6.6,0,0,1,.906,2.24a1.178,1.178,0,0,1,.657-.2c.113,0,.232.436.357,1.3s.26,1.953.4,3.267l.068.691q.074.691.187,1.444.4,3.21.436,4.026c.283-1.619.595-3.25.946-4.881l.187-.923A15.713,15.713,0,0,1,5.147,3.6c.362-.759.832-1.132,1.4-1.132.181,0,.385.476.606,1.416a25.762,25.762,0,0,1,.527,3.3q.142,1.342.374,2.616a11.7,11.7,0,0,0,.419,1.778c.085-.238.255-.764.515-1.574s.5-1.574.725-2.3A60.95,60.95,0,0,1,11.89,1.436,2.5,2.5,0,0,1,12.3.825,1,1,0,0,1,13,.6c.181,0,.379.8.566,2.389s.385,3.437.527,5.532c.374,2.961.719,4.575,1.025,4.835a.776.776,0,0,1,.311.566Q15.452,14.086,15.214,14.267Z" transform="translate(-0.6 -0.596)" fill="#016685" stroke="#016685" stroke-miterlimit="10" stroke-width="1.2"/><path d="M40.241,9.7a.566.566,0,0,1-.2.255,1.534,1.534,0,0,1-.612.215l-.623.119c.108.527.164.787.164.776.1.345.2.827.317,1.444.249,1.41.51,2.61.77,3.6a4.271,4.271,0,0,1,.108.566.453.453,0,0,1-.17.357.566.566,0,0,1-.4.147.476.476,0,0,1-.379-.221A1.7,1.7,0,0,1,39,16.574c-.125-.476-.243-1.008-.345-1.591s-.226-1.3-.368-2.118c-.057-.362-.147-.815-.272-1.353s-.209-.889-.255-1.059c-.821.113-2.265.334-4.252.674l-1.212.193-.442,1.234-.566,1.7q-.736,2.265-1.048,3.522a1.081,1.081,0,0,1-.255.493.612.612,0,0,1-.459.2.645.645,0,0,1-.391-.125.442.442,0,0,1-.159-.357,3.963,3.963,0,0,1,.238-1c.17-.5.266-.793.294-.895s.164-.459.334-.963.413-1.206.7-1.976.476-1.291.566-1.54c-.713.164-1.246.3-1.6.4a5.549,5.549,0,0,1-.98.209.391.391,0,0,1-.351-.181.713.713,0,0,1-.113-.385.4.4,0,0,1,.125-.345,1.421,1.421,0,0,1,.419-.181c.532-.125,1.093-.249,1.7-.374l1.229-.255c.136-.4.243-.742.311-1.025q.085-.272.221-.679t.306-1.019L32.688,6.7q.8-2.831.923-3.2a2.984,2.984,0,0,1,.2-.464.294.294,0,0,1,.26-.164,2.078,2.078,0,0,1,.753.147s.074-.091.142-.181a.5.5,0,0,1,.209-.187.736.736,0,0,1,.3-.051c.255,0,.566.283.872.861A15.226,15.226,0,0,1,37.3,5.487c.181.464.413,1.132.691,2.067s.464,1.517.566,1.812a3.4,3.4,0,0,0,.566-.113l.283-.1a.9.9,0,0,0,.226-.147,1.416,1.416,0,0,1,.232-.159.26.26,0,0,1,.232,0,.521.521,0,0,1,.272.527.753.753,0,0,1-.125.323ZM37.133,7.95c-.226-.8-.436-1.455-.629-1.959A11.512,11.512,0,0,0,35.745,4.4a3.126,3.126,0,0,0-.776-1.008l-.226.566A10.9,10.9,0,0,0,34.132,5.4c-.334,1.008-.866,2.667-1.591,4.988l2.452-.419L37,9.621l.566-.079C37.5,9.281,37.353,8.754,37.133,7.95Z" transform="translate(-12.514 -1.465)" fill="#016685" stroke="#016685" stroke-miterlimit="10" stroke-width="1.2"/><path d="M63.045,9.114a16.89,16.89,0,0,1-3.058,3.329c-.855.759-1.733,1.467-2.633,2.14A13.674,13.674,0,0,1,55.089,16a.691.691,0,0,1-.193.345.527.527,0,0,1-.374.119.379.379,0,0,1-.272-.074.334.334,0,0,1-.062-.26,7.037,7.037,0,0,1,.091-1.048,20.111,20.111,0,0,0,.1-2.157q0-2.095-.062-3.794c-.028-1.314-.04-2.237-.04-2.769a6.8,6.8,0,0,1,.243-2.01.713.713,0,0,1,.974-.442.2.2,0,0,1,.136.187,5.83,5.83,0,0,1-.221.736,4.026,4.026,0,0,0-.2,1.195c0,1.042,0,2.191.062,3.431.028,1.6.045,2.7.045,3.312v1.885a10.379,10.379,0,0,0,2.021-1.246q1.28-.917,2.169-1.7a15.288,15.288,0,0,0,2.656-2.933A4.9,4.9,0,0,0,63,6.084q0-1.7-2.123-2.327a20.146,20.146,0,0,0-5.555-.595,20.6,20.6,0,0,0-2.831.255,5.917,5.917,0,0,0-1.047.209,1.7,1.7,0,0,1-.442.1q-.17,0-.323-.272a1.053,1.053,0,0,1-.159-.566c0-.068.051-.136.147-.2a1.161,1.161,0,0,1,.459-.136c.838-.113,1.557-.2,2.146-.255s1.291-.079,2.089-.079a18.8,18.8,0,0,1,6.228.855q2.4.883,2.4,2.939a5.623,5.623,0,0,1-.94,3.1Z" transform="translate(-22.254 -1.298)" fill="#016685" stroke="#016685" stroke-miterlimit="10" stroke-width="1.2"/></g></g></svg>