<svg xmlns="http://www.w3.org/2000/svg" width="110.285" height="26.169" viewBox="0 0 110.285 26.169"><g transform="translate(0.601 0.601)"><g transform="translate(0 0.376)"><g transform="translate(55.991 3.426)"><path d="M84.238,24.385a2.032,2.032,0,1,1,.6,1.457,2.052,2.052,0,0,1-.6-1.457Z" transform="translate(-84.238 -10.44)" fill="#707070"/><path d="M111.852,16.153c-.4.273-.858.559-1.37.852a14.684,14.684,0,0,1-1.647.81,12.742,12.742,0,0,1-1.864.608,8.181,8.181,0,0,1-1.968.238,3.846,3.846,0,0,1-1.576-.286,2.483,2.483,0,0,1-1.082-.879,3.977,3.977,0,0,1-.616-1.487,10.005,10.005,0,0,1-.2-2.1c-.206.238-.428.493-.672.74a8.408,8.408,0,0,1-.728.7c-.242.2-.476.44-.7.635s-.41.349-.568.467a19.029,19.029,0,0,1-3.35,2.036,7.04,7.04,0,0,1-2.938.7,2.629,2.629,0,0,1-.784-.112,2.106,2.106,0,0,1-.578-.294,1.236,1.236,0,0,1-.354-.4.878.878,0,0,1-.122-.44,4.156,4.156,0,0,1,.318-1.564,9.11,9.11,0,0,1,.858-1.543,14.871,14.871,0,0,1,1.11-1.487,16.653,16.653,0,0,1,1.23-1.278,13.59,13.59,0,0,1,1.138-1,9.869,9.869,0,0,1,1.184-.863,5.767,5.767,0,0,1,1.11-.538,2.6,2.6,0,0,1,.932-.2,1.626,1.626,0,0,1,.484.076,4.759,4.759,0,0,1,.54.181c.165.076.329.147.466.223a2.258,2.258,0,0,1,.3.168c.1.084.214.189.329.3a.48.48,0,0,1,.178.356,1.217,1.217,0,0,1-.066.294.532.532,0,0,1-.234.279l-.112.1a.8.8,0,0,1-.13.1.993.993,0,0,1-.224.076,1.561,1.561,0,0,1-.364.035.733.733,0,0,1-.392-.112,1.453,1.453,0,0,1-.29-.247,1.755,1.755,0,0,1-.224-.286.852.852,0,0,0-.186-.21,2.108,2.108,0,0,0-.932.247,5.642,5.642,0,0,0-1,.643,9.2,9.2,0,0,0-1.026.915c-.329.342-.634.7-.932,1.075s-.578.747-.823,1.117-.476.7-.659,1.013a8.777,8.777,0,0,0-.428.8,1.46,1.46,0,0,0-.165.461.557.557,0,0,0,.257.448,1,1,0,0,0,.611.168,2.862,2.862,0,0,0,.8-.123,8.7,8.7,0,0,0,.868-.321,9.131,9.131,0,0,0,.823-.4c.252-.139.476-.265.659-.377.42-.265.858-.572,1.342-.915a13.206,13.206,0,0,0,1.37-1.1,10.205,10.205,0,0,0,1.184-1.194,4.848,4.848,0,0,0,.784-1.222,8.085,8.085,0,0,0,.29-.879c.094-.334.165-.7.252-1.083s.15-.782.214-1.194.122-.824.178-1.215.094-.789.13-1.159.074-.7.112-1.005q.066-1.215,1.51-1.215a.562.562,0,0,1,.5.286,1.537,1.537,0,0,1,.178.8,1.5,1.5,0,0,1-.066.425c-.066.231-.1.53-.178.887s-.165.747-.262,1.188-.186.894-.28,1.357l-.28,1.4c-.094.467-.178.894-.252,1.285s-.14.74-.178,1.041a4.449,4.449,0,0,0-.066.643v.643a5.743,5.743,0,0,0,.056.782,4.96,4.96,0,0,0,.2.8,2.057,2.057,0,0,0,.392.7,1.923,1.923,0,0,0,.644.509,2.364,2.364,0,0,0,.988.2,7.624,7.624,0,0,0,1.436-.139,9.927,9.927,0,0,0,1.464-.419,13.5,13.5,0,0,0,1.52-.629c.512-.247,1.062-.524,1.632-.831l.074-.055a.592.592,0,0,1,.14-.1l.14-.1a.2.2,0,0,1,.074-.042c.056,0,.112.049.165.139a.832.832,0,0,1,.074.363,1.076,1.076,0,0,1-.074.37.857.857,0,0,1-.318.377Z" transform="translate(-84.68 -4.276)" fill="#707070"/><path d="M127.953,15.844a1.647,1.647,0,0,1-.28.68,21.12,21.12,0,0,1-1.268,1.762,22.1,22.1,0,0,1-1.688,1.864c-.616.606-1.268,1.24-1.958,1.864a18.429,18.429,0,0,1-2.108,1.548,12.925,12.925,0,0,1-2.116,1.062,5.342,5.342,0,0,1-2,.41h-.084a4.056,4.056,0,0,1-3.264-1.25,5.105,5.105,0,0,1-1.082-3.468,13.5,13.5,0,0,1,.14-1.864,10.985,10.985,0,0,1,.484-2.024,10.686,10.686,0,0,1,.932-2.052A10.258,10.258,0,0,1,115.2,12.39a5.538,5.538,0,0,1,1.464-1.1,3.394,3.394,0,0,1,1.464-.382.868.868,0,0,1,.27.056,1.66,1.66,0,0,1,.329.13,1.754,1.754,0,0,1,.606.466,3.554,3.554,0,0,1,.522.876,2.676,2.676,0,0,1,.165.988,4.058,4.058,0,0,1-.206,1.342,4.663,4.663,0,0,1-.588,1.174,7.889,7.889,0,0,1-.932,1.153c-.372.392-.8.8-1.286,1.258l-.568.5-.718.588-.792.644-.8.644a2.2,2.2,0,0,0,2.536,2.284,6.806,6.806,0,0,0,2.882-.708,9.158,9.158,0,0,0,1.408-.823c.428-.308.858-.624,1.268-.932.206-.165.428-.354.68-.578l.756-.7.774-.736.736-.708.466-.456.532-.522.69-.69a1.866,1.866,0,0,1,.932-.55C127.91,15.6,127.953,15.657,127.953,15.844Zm-9.818-1.864a1.072,1.072,0,0,0-.206-.659.578.578,0,0,0-.494-.29,1.23,1.23,0,0,0-.558.17,2.687,2.687,0,0,0-.728.634,9.072,9.072,0,0,0-1.352,2.228,12.327,12.327,0,0,0-.764,2.964c.54-.428.988-.823,1.362-1.153s.7-.659,1-.932A6.063,6.063,0,0,0,117,16.3a8.275,8.275,0,0,0,.55-.728,4.225,4.225,0,0,0,.4-.792,2.275,2.275,0,0,0,.178-.848Z" transform="translate(-86.121 -9.722)" fill="#707070"/><path d="M140.828,15.726a.728.728,0,0,1-.14.476,1.482,1.482,0,0,1-.372.29l-.484.252a1.556,1.556,0,0,0-.476.346c-.252.252-.494.512-.736.792s-.494.55-.728.84-.476.568-.7.848l-.644.823c-.6.8-1.174,1.688-1.752,2.635s-1.1,1.864-1.586,2.8a4.915,4.915,0,0,1-.512.8,5.908,5.908,0,0,1-.568.6,2.87,2.87,0,0,1-.5.372.8.8,0,0,1-.344.13q-.532,0-1.09-.756V26.7a1.951,1.951,0,0,0,0-.224,3.851,3.851,0,0,0-.1-.932,6.963,6.963,0,0,0-.29-1.008c-.13-.364-.29-.746-.476-1.153s-.392-.868-.634-1.37a14.986,14.986,0,0,1-.624-1.464q-.262-.728-.448-1.4a12.846,12.846,0,0,1-.27-1.258,7.837,7.837,0,0,1-.084-1.082,3,3,0,0,1,.094-.728,2.882,2.882,0,0,1,.28-.7,1.548,1.548,0,0,1,.448-.532,1.016,1.016,0,0,1,.634-.206,1.138,1.138,0,0,1,.764.206,1.044,1.044,0,0,1,.224.764,1.956,1.956,0,0,1,0,.382,1.907,1.907,0,0,1-.1.428c-.038.15-.066.27-.094.41a2.034,2.034,0,0,0-.046.392,5.69,5.69,0,0,0,.15,1.23,12.327,12.327,0,0,0,.372,1.286c.15.428.308.858.494,1.286s.354.848.532,1.258.4.932.54,1.306.224.578.252.634a5,5,0,0,0,.69-.736c.262-.329.532-.718.823-1.153s.588-.876.932-1.352.578-.932.868-1.39l.329-.54.484-.774.54-.876.56-.868.494-.746c.165-.234.28-.4.372-.522a2.452,2.452,0,0,1,.823-.69,2.416,2.416,0,0,1,1.044-.242.784.784,0,0,1,.456.14,1.153,1.153,0,0,1,.344.329,1.541,1.541,0,0,1,.214.428,1.176,1.176,0,0,1,.048.487Z" transform="translate(-87.142 -9.959)" fill="#707070"/></g><path d="M24.667,23.109a1.482,1.482,0,0,1-.886.3,3.022,3.022,0,0,1-.659-.056.466.466,0,0,1-.344-.29,12.5,12.5,0,0,1-.728-3.078c-.27-1.7-.54-3.656-.792-5.864q-.823-10.1-1.278-10.35c-.252.55-.644,1.594-1.166,3.129s-1.153,3.524-1.864,5.986a49.368,49.368,0,0,1-1.681,5.5,4.662,4.662,0,0,1-1.034,1.864,3.623,3.623,0,0,1-.68.466,1.418,1.418,0,0,1-.672.224.812.812,0,0,1-.448-.084,1.4,1.4,0,0,1-.242-.532c-.094-.346-.308-1.426-.659-3.226s-.6-3.437-.789-4.891l-.2-1.446a46.444,46.444,0,0,0-.792-5.006A5.912,5.912,0,0,0,8.5,8.366q-.595,2-1.35,5.66-.728,2.89-1.762,9.324c-.048.3-.049.685-.322.818-.255.181-.773,1.889-1.218.258h0l-.308-.551L3.4,23.287c0-.718-.178-2.256-.466-4.662s-.55-4.446-.774-6.248A60.438,60.438,0,0,0,.839,5.326,11.8,11.8,0,0,1,.6,4.152a.988.988,0,0,1,.5-.85,1.94,1.94,0,0,1,1.082-.329c.186,0,.382.718.588,2.141s.428,3.216.659,5.38l.112,1.138q.122,1.138.308,2.378.659,5.286.718,6.63c.466-2.666.98-5.352,1.558-8.038l.308-1.52a25.877,25.877,0,0,1,1.652-5.54c.6-1.25,1.37-1.864,2.306-1.864.3,0,.634.784,1,2.332a42.426,42.426,0,0,1,.868,5.435q.234,2.21.616,4.308a19.268,19.268,0,0,0,.69,2.928c.14-.392.42-1.258.848-2.592s.823-2.592,1.194-3.788A100.374,100.374,0,0,1,19.193,1.978,4.117,4.117,0,0,1,19.868.972,1.647,1.647,0,0,1,21.021.6c.3,0,.624,1.317.932,3.934s.634,5.66.868,9.11c.616,4.876,1.184,7.534,1.688,7.962.3.222.131.645.158,1.015C24.692,22.8,24.928,22.91,24.667,23.109Z" transform="translate(-0.6 -0.973)" fill="#0dbff6" stroke="#0dbff6" stroke-miterlimit="10" stroke-width="1.2"/><path d="M48.12,12.056a.8.8,0,0,1-.329.34,2.937,2.937,0,0,1-1.008.286l-1.026.158c.178.7.27,1.048.27,1.033a19.162,19.162,0,0,1,.522,1.923c.41,1.878.84,3.476,1.268,4.794a4.732,4.732,0,0,1,.178.754.568.568,0,0,1-.28.475,1.07,1.07,0,0,1-.659.2.833.833,0,0,1-.624-.294,2.192,2.192,0,0,1-.356-.511,21.8,21.8,0,0,1-.568-2.119c-.168-.776-.372-1.731-.606-2.821-.094-.482-.242-1.085-.448-1.8s-.344-1.184-.42-1.41c-1.352.15-3.73.445-7,.9l-2,.257-.728,1.643-.932,2.264q-1.212,3.016-1.726,4.691a1.369,1.369,0,0,1-.42.657,1.13,1.13,0,0,1-.756.266,1.241,1.241,0,0,1-.644-.166.547.547,0,0,1-.262-.475,4.459,4.459,0,0,1,.392-1.332c.28-.666.438-1.056.484-1.192s.27-.611.55-1.283.68-1.606,1.153-2.632.784-1.719.932-2.051c-1.174.218-2.052.4-2.635.533a11.039,11.039,0,0,1-1.614.278.7.7,0,0,1-.578-.241.823.823,0,0,1-.186-.513.48.48,0,0,1,.206-.459,2.656,2.656,0,0,1,.69-.241c.876-.166,1.8-.332,2.8-.5l2.024-.34a14.023,14.023,0,0,0,.512-1.365q.14-.362.364-.9t.5-1.357l.515-1.436Q37,4.29,37.2,3.8a3.624,3.624,0,0,1,.329-.618.5.5,0,0,1,.428-.218,4.139,4.139,0,0,1,1.24.2s.122-.121.234-.241a.79.79,0,0,1,.344-.249,1.472,1.472,0,0,1,.494-.068c.42,0,.932.377,1.436,1.147a18.818,18.818,0,0,1,1.569,2.7c.3.618.68,1.508,1.138,2.753s.764,2.02.932,2.413a6.783,6.783,0,0,0,.932-.15l.466-.133a1.555,1.555,0,0,0,.372-.2,2.418,2.418,0,0,1,.382-.212.52.52,0,0,1,.382,0,.67.67,0,0,1,.448.7.9.9,0,0,1-.206.43ZM43,9.725a27.382,27.382,0,0,0-1.036-2.609A14.272,14.272,0,0,0,40.716,5a4.409,4.409,0,0,0-1.278-1.342l-.372.754a13.19,13.19,0,0,0-1.006,1.92q-.825,2.014-2.62,6.643l4.038-.558,3.305-.463.932-.105C43.606,11.5,43.364,10.8,43,9.725Z" transform="translate(-7.514 -0.734)" fill="#0dbff6" stroke="#0dbff6" stroke-miterlimit="10" stroke-width="1.2"/><path d="M71.147,11.159a24.977,24.977,0,0,1-5.036,4.315c-1.408.984-2.854,1.9-4.336,2.774a24.128,24.128,0,0,1-3.73,1.837.869.869,0,0,1-.318.447,1.032,1.032,0,0,1-.616.154.752.752,0,0,1-.448-.1.365.365,0,0,1-.1-.337,7.234,7.234,0,0,1,.15-1.358,20.565,20.565,0,0,0,.165-2.8q0-2.715-.1-4.918c-.046-1.7-.066-2.9-.066-3.589a7.052,7.052,0,0,1,.4-2.605,1.036,1.036,0,0,1,.638-.571,1.467,1.467,0,0,1,.966,0,.274.274,0,0,1,.224.242,6.409,6.409,0,0,1-.364.954,4.224,4.224,0,0,0-.329,1.549c0,1.351,0,2.84.1,4.447.046,2.074.074,3.5.074,4.293v2.443a18.378,18.378,0,0,0,3.328-1.615q2.108-1.189,3.572-2.2a22.494,22.494,0,0,0,4.374-3.8,5.46,5.46,0,0,0,1.38-3.491q0-2.2-3.5-3.016a41.8,41.8,0,0,0-9.148-.771,42.886,42.886,0,0,0-4.662.331,12.1,12.1,0,0,0-1.724.271,3.453,3.453,0,0,1-.728.13.686.686,0,0,1-.532-.353,1.158,1.158,0,0,1-.262-.734c0-.088.084-.176.242-.259a2.309,2.309,0,0,1,.756-.176c1.38-.146,2.564-.259,3.534-.331s2.126-.1,3.44-.1A38.82,38.82,0,0,1,68.749,3.329Q72.7,4.474,72.7,7.138a6.244,6.244,0,0,1-1.548,4.018Z" transform="translate(-13.323 -0.712)" fill="#0dbff6" stroke="#0dbff6" stroke-miterlimit="10" stroke-width="1.2"/></g></g></svg>